<svg width="16px" height="16px" viewBox="0 0 16 16" xmlns="http://www.w3.org/2000/svg">
  <path fill="#000000" fill-rule="evenodd" d="M10.0248,9.97521 L5.83008,14.1699 C4.72551,15.2745 2.93464,15.2745 1.83008,14.1699 C0.725505,13.0654 0.725506,11.2745 1.83008,10.1699 L6.02479,5.97521 C6.0084,5.81904 6,5.6605 6,5.5 C6,3.18096 7.7542,1.27164 10.008,1.02658 C10.1696,1.00901 10.3338,1 10.5,1 C11.1906,1 11.8448,1.15555 12.4295,1.43351 L10.2851,3.57797 C9.6993,4.16376 9.6993,5.11351 10.2851,5.69929 C10.8709,6.28508 11.8206,6.28508 12.4064,5.69929 L14.5564,3.54932 C14.8407,4.13945 15,4.80112 15,5.5 C15,5.65429 14.9922,5.80676 14.9771,5.95705 C14.748,8.22767 12.831,10 10.5,10 C10.3395,10 10.181,9.9916 10.0248,9.97521 Z M9.28499,7.88658 L4.41586,12.7557 C4.09234,13.0792 3.56781,13.0792 3.24429,12.7557 C2.92077,12.4322 2.92077,11.9077 3.24429,11.5841 L8.11342,6.715 L9.28499,7.88658 Z"/>
</svg>
